<svg width="32" height="32" viewBox="0 0 32 32" fill="none" xmlns="http://www.w3.org/2000/svg">
  <!-- Círculo de fondo con gradiente tecnológico -->
  <circle cx="16" cy="16" r="16" fill="url(#gradient)"/>
  
  <!-- Hoja verde principal -->
  <path d="M16 6C18.5 6 21 8.5 22 11C22.5 12 22.5 13.5 22 14.5C21 17.5 18.5 20 16 20C14 20 12.5 19 11.5 17.5C10.5 16 10.5 14 11.5 12.5C12.5 9.5 14.5 6 16 6Z" fill="#10B981"/>
  
  <!-- Nervadura de la hoja -->
  <path d="M16 8L16 18M14 10L18 14M18 10L14 14" stroke="#065F46" stroke-width="1" stroke-linecap="round"/>
  
  <!-- Elementos tecnológicos - puntos de circuito -->
  <circle cx="8" cy="8" r="1.5" fill="#3B82F6"/>
  <circle cx="24" cy="8" r="1.5" fill="#3B82F6"/>
  <circle cx="8" cy="24" r="1.5" fill="#3B82F6"/>
  <circle cx="24" cy="24" r="1.5" fill="#3B82F6"/>
  
  <!-- Líneas de conexión tecnológicas -->
  <path d="M8 8L12 12M24 8L20 12M8 24L12 20M24 24L20 20" stroke="#3B82F6" stroke-width="0.5" opacity="0.6"/>
  
  <!-- Gradientes -->
  <defs>
    <linearGradient id="gradient" x1="0%" y1="0%" x2="100%" y2="100%">
      <stop offset="0%" style="stop-color:#1F2937;stop-opacity:1" />
      <stop offset="50%" style="stop-color:#374151;stop-opacity:1" />
      <stop offset="100%" style="stop-color:#1F2937;stop-opacity:1" />
    </linearGradient>
  </defs>
</svg>